<?xml version="1.0" encoding="UTF-8"?>
<!DOCTYPE svg PUBLIC "-//W3C//DTD SVG 1.1//EN" "http://www.w3.org/Graphics/SVG/1.1/DTD/svg11.dtd">
<svg xmlns="http://www.w3.org/2000/svg" version="1.1" width="543px" height="543px" style="shape-rendering:geometricPrecision; text-rendering:geometricPrecision; image-rendering:optimizeQuality; fill-rule:evenodd; clip-rule:evenodd" xmlns:xlink="http://www.w3.org/1999/xlink">
<g><path style="opacity:1" fill="#fefefe" d="M -0.5,-0.5 C 180.5,-0.5 361.5,-0.5 542.5,-0.5C 542.5,180.5 542.5,361.5 542.5,542.5C 361.5,542.5 180.5,542.5 -0.5,542.5C -0.5,361.5 -0.5,180.5 -0.5,-0.5 Z"/></g>
<g><path style="opacity:1" fill="#371573" d="M 509.5,355.5 C 507.801,355.34 506.134,355.506 504.5,356C 506.249,367.507 506.915,379.34 506.5,391.5C 505.5,391.5 504.5,391.5 503.5,391.5C 503.331,389.088 503.997,386.921 505.5,385C 505.167,384.5 504.833,384 504.5,383.5C 502.611,385.8 501.277,388.466 500.5,391.5C 498.471,387.265 497.471,382.765 497.5,378C 497.431,372.011 498.098,366.344 499.5,361C 497.3,361.584 495.133,361.418 493,360.5C 492.333,356.833 492.333,353.167 493,349.5C 495.375,348.285 497.209,346.619 498.5,344.5C 509.738,333.973 515.905,320.973 517,305.5C 515.78,283.135 514.28,260.802 512.5,238.5C 512.316,226.704 513.149,215.038 515,203.5C 505.931,195.101 497.598,186.101 490,176.5C 479.502,158.166 468.502,140.166 457,122.5C 444.122,104.646 426.622,96.3123 404.5,97.5C 401.421,80.5818 392.088,68.4151 376.5,61C 368.165,57.6498 359.831,54.6498 351.5,52C 328.921,48.4855 306.921,42.8189 285.5,35C 281.342,31.8388 276.842,29.3388 272,27.5C 263.242,32.4258 254.075,36.5925 244.5,40C 227.243,44.3141 209.91,48.3141 192.5,52C 175.537,55.2321 161.037,63.0654 149,75.5C 143.992,82.0188 140.825,89.3522 139.5,97.5C 123.685,96.4519 109.685,100.952 97.5,111C 90.9094,117.587 85.0761,124.753 80,132.5C 69.2498,152.344 57.2498,171.344 44,189.5C 37.9269,194.071 32.7602,199.405 28.5,205.5C 30.6574,217.055 31.6574,228.721 31.5,240.5C 29.9199,259.297 28.5866,278.13 27.5,297C 25.7022,319.655 34.2022,337.155 53,349.5C 53.6667,353.5 53.6667,357.5 53,361.5C 51.8182,366.754 50.6515,371.92 49.5,377C 50.7892,384.868 53.2892,392.368 57,399.5C 60.6667,404.833 64.3333,410.167 68,415.5C 79,427.833 90,440.167 101,452.5C 104.812,457.134 107.979,462.134 110.5,467.5C 110.338,469.527 110.505,471.527 111,473.5C 112.639,477.147 114.805,480.48 117.5,483.5C 116.017,486.411 116.35,489.078 118.5,491.5C 128.39,491.886 138.39,493.053 148.5,495C 157.366,498.383 166.366,501.216 175.5,503.5C 191.806,510.88 208.472,517.38 225.5,523C 241.547,526.311 255.547,522.311 267.5,511C 270.5,510.333 273.5,510.333 276.5,511C 285.683,519.924 296.683,524.424 309.5,524.5C 317.067,524.863 324.067,523.196 330.5,519.5C 333.864,517.317 337.53,515.984 341.5,515.5C 345.75,514.096 350.083,512.93 354.5,512C 357.979,509.211 361.979,507.878 366.5,508C 367.337,506.989 367.67,505.822 367.5,504.5C 368.873,504.657 370.207,504.49 371.5,504C 373.859,502.758 375.859,501.258 377.5,499.5C 391.606,495.926 405.939,493.426 420.5,492C 424.03,491.328 425.363,489.162 424.5,485.5C 428.085,474.997 433.252,465.331 440,456.5C 455.114,439.897 469.614,422.897 483.5,405.5C 485.994,403.201 488.494,400.867 491,398.5C 491.973,396.608 492.64,394.608 493,392.5C 493.718,393.451 494.551,393.617 495.5,393C 494.409,390.936 494.242,388.769 495,386.5C 497.647,391.599 499.813,396.932 501.5,402.5C 500.183,402.313 498.85,402.98 497.5,404.5C 498.687,405.519 499.687,406.686 500.5,408C 499.175,407.852 498.008,408.018 497,408.5C 496.982,410.797 497.149,413.131 497.5,415.5C 485.003,432.841 471.17,449.174 456,464.5C 446.89,476.218 439.723,489.051 434.5,503C 408.703,504.778 384.703,512.111 362.5,525C 349.757,530.136 336.757,534.47 323.5,538C 304.727,542.644 287.561,539.478 272,528.5C 257.765,538.681 241.932,542.181 224.5,539C 221.258,538.594 218.258,537.761 215.5,536.5C 212.598,535.056 209.598,533.556 206.5,532C 197.659,529.596 188.992,526.762 180.5,523.5C 169.341,518.761 158.008,514.261 146.5,510C 134.447,506.285 122.113,504.452 109.5,504.5C 105.598,492.696 100.098,481.696 93,471.5C 81.706,457.871 70.0393,444.537 58,431.5C 47.8204,420.144 40.487,407.144 36,392.5C 35.3333,383.833 35.3333,375.167 36,366.5C 36.4523,363.851 37.2857,361.351 38.5,359C 30.2132,353.883 23.8799,347.05 19.5,338.5C 17.4792,332.284 15.9792,325.951 15,319.5C 14.3305,296.779 14.8305,274.113 16.5,251.5C 17.9644,235.576 16.4644,219.909 12,204.5C 11.1764,201.118 11.343,197.784 12.5,194.5C 21.1487,187.685 28.9821,180.018 36,171.5C 47.9175,152.667 59.5842,133.667 71,114.5C 78.6667,103.162 88.5001,94.3287 100.5,88C 109.395,86.0403 118.395,85.207 127.5,85.5C 130.498,69.6676 138.832,57.5009 152.5,49C 159.828,45.2222 167.495,42.2222 175.5,40C 194.104,35.454 212.771,31.1207 231.5,27C 244.116,23.1913 255.783,17.5246 266.5,10C 270.167,9.33333 273.833,9.33333 277.5,10C 287.916,17.3695 299.249,23.0362 311.5,27C 333.586,31.8476 355.586,37.1809 377.5,43C 398.699,49.6971 411.699,63.8638 416.5,85.5C 432.427,83.5343 446.427,87.7009 458.5,98C 464.375,104.207 469.875,110.707 475,117.5C 485.498,135.834 496.498,153.834 508,171.5C 515.018,180.018 522.851,187.685 531.5,194.5C 531.833,196.167 532.167,197.833 532.5,199.5C 526.365,226.006 525.865,252.673 531,279.5C 531.667,292.833 531.667,306.167 531,319.5C 529.098,334.775 521.932,346.775 509.5,355.5 Z"/></g>
<g><path style="opacity:1" fill="#fdfcfc" d="M 498.5,344.5 C 495.9,345.919 493.4,347.585 491,349.5C 489.913,357.13 490.913,364.463 494,371.5C 494.667,375.167 494.667,378.833 494,382.5C 491.003,390.488 487.503,398.155 483.5,405.5C 469.614,422.897 455.114,439.897 440,456.5C 433.252,465.331 428.085,474.997 424.5,485.5C 423.621,487.23 422.288,488.563 420.5,489.5C 412.885,490.993 405.219,492.159 397.5,493C 390.541,494.612 383.874,496.779 377.5,499.5C 364.937,503.896 352.937,509.23 341.5,515.5C 337.53,515.984 333.864,517.317 330.5,519.5C 323.437,521.421 316.437,523.088 309.5,524.5C 296.683,524.424 285.683,519.924 276.5,511C 273.5,510.333 270.5,510.333 267.5,511C 255.547,522.311 241.547,526.311 225.5,523C 208.472,517.38 191.806,510.88 175.5,503.5C 170.642,501.26 165.642,499.094 160.5,497C 147.555,493.733 134.555,490.9 121.5,488.5C 118.584,480.997 114.917,473.997 110.5,467.5C 107.979,462.134 104.812,457.134 101,452.5C 90,440.167 79,427.833 68,415.5C 64.3333,410.167 60.6667,404.833 57,399.5C 53.2892,392.368 50.7892,384.868 49.5,377C 50.6515,371.92 51.8182,366.754 53,361.5C 53.6667,357.5 53.6667,353.5 53,349.5C 34.2022,337.155 25.7022,319.655 27.5,297C 28.5866,278.13 29.9199,259.297 31.5,240.5C 31.6574,228.721 30.6574,217.055 28.5,205.5C 32.7602,199.405 37.9269,194.071 44,189.5C 57.2498,171.344 69.2498,152.344 80,132.5C 85.0761,124.753 90.9094,117.587 97.5,111C 109.685,100.952 123.685,96.4519 139.5,97.5C 140.825,89.3522 143.992,82.0188 149,75.5C 161.037,63.0654 175.537,55.2321 192.5,52C 209.91,48.3141 227.243,44.3141 244.5,40C 254.075,36.5925 263.242,32.4258 272,27.5C 276.842,29.3388 281.342,31.8388 285.5,35C 306.921,42.8189 328.921,48.4855 351.5,52C 359.831,54.6498 368.165,57.6498 376.5,61C 392.088,68.4151 401.421,80.5818 404.5,97.5C 426.622,96.3123 444.122,104.646 457,122.5C 468.502,140.166 479.502,158.166 490,176.5C 497.598,186.101 505.931,195.101 515,203.5C 513.149,215.038 512.316,226.704 512.5,238.5C 514.28,260.802 515.78,283.135 517,305.5C 515.905,320.973 509.738,333.973 498.5,344.5 Z"/></g>
<g><path style="opacity:1" fill="#1a1b1d" d="M 210.5,117.5 C 230.449,123.49 250.449,129.49 270.5,135.5C 290.328,128.89 310.328,122.89 330.5,117.5C 330.667,130.504 330.5,143.504 330,156.5C 329.654,158.848 328.487,160.681 326.5,162C 308.026,171.529 288.359,176.029 267.5,175.5C 250.725,175.472 234.725,171.972 219.5,165C 216.705,163.207 214.205,161.04 212,158.5C 210.554,144.907 210.054,131.24 210.5,117.5 Z"/></g>
<g><path style="opacity:1" fill="#19171a" d="M 205.5,169.5 C 206.226,173.756 204.559,176.423 200.5,177.5C 197.989,176.345 195.322,175.678 192.5,175.5C 191.412,172.444 191.412,169.444 192.5,166.5C 193.496,166.586 194.329,166.252 195,165.5C 195.833,145.825 195.666,126.158 194.5,106.5C 188.15,105.217 182.15,103.051 176.5,100C 207.95,88.3492 239.617,77.1825 271.5,66.5C 277.505,68.0012 283.505,69.5012 289.5,71C 315.005,80.3909 340.672,89.3909 366.5,98C 363.661,99.9203 360.661,101.587 357.5,103C 328.307,113.009 298.973,122.509 269.5,131.5C 250.124,125.763 231.124,118.93 212.5,111C 232.618,106.267 252.951,104.267 273.5,105C 277.292,102.947 278.458,99.7806 277,95.5C 274.347,92.8059 271.18,91.9726 267.5,93C 263.928,95.6366 259.928,97.3033 255.5,98C 239.099,99.8963 222.766,102.23 206.5,105C 204.277,105.652 203.11,107.152 203,109.5C 202.333,127.167 202.333,144.833 203,162.5C 204.136,164.743 204.97,167.076 205.5,169.5 Z"/></g>
<g><path style="opacity:1" fill="#b0292f" d="M 192.5,166.5 C 191.412,169.444 191.412,172.444 192.5,175.5C 195.322,175.678 197.989,176.345 200.5,177.5C 204.559,176.423 206.226,173.756 205.5,169.5C 206.069,172.063 207.403,174.23 209.5,176C 223.667,184.918 238,193.585 252.5,202C 264.917,206.034 276.917,205.034 288.5,199C 308.334,185.913 328.668,173.58 349.5,162C 353.905,159.628 358.572,158.128 363.5,157.5C 372.09,156.077 380.757,155.41 389.5,155.5C 396.47,155.626 402.303,158.293 407,163.5C 407.688,164.332 407.521,164.998 406.5,165.5C 365.253,194.353 321.92,220.02 276.5,242.5C 270.219,205.291 264.219,205.291 258.5,242.5C 255.729,242.579 253.063,242.079 250.5,241C 241.833,236.333 233.167,231.667 224.5,227C 191.655,206.747 159.322,185.747 127.5,164C 131.5,161.333 135.5,158.667 139.5,156C 158.499,153.167 176.166,156.667 192.5,166.5 Z"/></g>
<g><path style="opacity:1" fill="#b05b5a" d="M 389.5,155.5 C 380.757,155.41 372.09,156.077 363.5,157.5C 372.019,154.593 380.686,153.926 389.5,155.5 Z"/></g>
<g><path style="opacity:1" fill="#28204e" d="M 312.5,296.5 C 311.076,297.995 309.909,300.328 309,303.5C 306.905,314.056 306.072,324.723 306.5,335.5C 281.167,335.5 255.833,335.5 230.5,335.5C 231.919,321.661 230.085,308.327 225,295.5C 223.931,293.593 222.431,292.259 220.5,291.5C 215.626,286.459 210.292,281.959 204.5,278C 168.889,253.389 133.556,228.389 98.5,203C 95.0354,200.537 91.8688,197.704 89,194.5C 88.4926,193.004 88.9926,191.837 90.5,191C 93.8333,189 97.1667,187 100.5,185C 116.615,182.098 131.948,184.431 146.5,192C 182.872,214.379 218.705,237.545 254,261.5C 258.253,266.007 260.92,271.34 262,277.5C 262.5,290.162 262.667,302.829 262.5,315.5C 267.5,315.5 272.5,315.5 277.5,315.5C 277.333,302.829 277.5,290.162 278,277.5C 280.201,266.263 286.035,257.429 295.5,251C 325.777,230.389 355.777,209.389 385.5,188C 399.75,178.913 414.75,177.247 430.5,183C 433.891,184.689 436.891,186.856 439.5,189.5C 438.469,190.7 437.635,192.034 437,193.5C 398,224.5 359,255.5 320,286.5C 317.252,289.734 314.752,293.068 312.5,296.5 Z"/></g>
<g><path style="opacity:1" fill="#391d6b" d="M 16.5,251.5 C 14.8305,274.113 14.3305,296.779 15,319.5C 15.9792,325.951 17.4792,332.284 19.5,338.5C 17.8368,336.507 16.6701,334.174 16,331.5C 12.6317,315.336 11.6317,299.003 13,282.5C 14.1991,272.02 15.3658,261.687 16.5,251.5 Z"/></g>
<g><path style="opacity:1" fill="#282244" d="M 220.5,291.5 C 222.431,292.259 223.931,293.593 225,295.5C 230.085,308.327 231.919,321.661 230.5,335.5C 255.833,335.5 281.167,335.5 306.5,335.5C 306.072,324.723 306.905,314.056 309,303.5C 309.909,300.328 311.076,297.995 312.5,296.5C 309.002,309.564 307.668,322.897 308.5,336.5C 282.167,336.5 255.833,336.5 229.5,336.5C 231.75,320.307 228.75,305.307 220.5,291.5 Z"/></g>
<g><path style="opacity:1" fill="#0f0f0f" d="M 191.5,347.5 C 198.086,345.715 201.753,348.049 202.5,354.5C 199.118,354.274 196.118,353.274 193.5,351.5C 193.238,352.978 193.571,354.311 194.5,355.5C 201.543,356.688 204.376,360.688 203,367.5C 200.459,372.069 196.625,373.569 191.5,372C 188.922,369.772 187.589,366.939 187.5,363.5C 189.288,363.215 190.955,363.548 192.5,364.5C 194.364,368.293 196.364,368.459 198.5,365C 195.348,362.835 192.181,360.668 189,358.5C 187.812,354.259 188.645,350.592 191.5,347.5 Z"/></g>
<g><path style="opacity:1" fill="#3d3d3d" d="M 272.5,348.5 C 277.305,347.513 282.305,347.179 287.5,347.5C 287.5,349.167 287.5,350.833 287.5,352.5C 287.167,352.5 286.833,352.5 286.5,352.5C 286.5,351.167 286.5,349.833 286.5,348.5C 281.833,348.5 277.167,348.5 272.5,348.5 Z"/></g>
<g><path style="opacity:1" fill="#0f0f0f" d="M 128.5,371.5 C 126.833,371.5 125.167,371.5 123.5,371.5C 123.813,367.958 123.479,364.625 122.5,361.5C 120.785,357.069 118.785,352.735 116.5,348.5C 118.5,347.167 120.5,347.167 122.5,348.5C 123.577,350.912 124.744,353.246 126,355.5C 126.765,352.804 127.932,350.304 129.5,348C 131.134,347.506 132.801,347.34 134.5,347.5C 133.237,352.032 131.403,356.365 129,360.5C 128.501,364.152 128.335,367.818 128.5,371.5 Z"/></g>
<g><path style="opacity:1" fill="#161616" d="M 139.5,347.5 C 141.792,347.244 143.959,347.577 146,348.5C 147.891,356.603 150.058,364.603 152.5,372.5C 150.5,372.5 148.5,372.5 146.5,372.5C 146.5,371.167 146.5,369.833 146.5,368.5C 143.084,367.894 140.418,368.894 138.5,371.5C 136.955,372.452 135.288,372.785 133.5,372.5C 135.027,364.058 137.027,355.725 139.5,347.5 Z"/></g>
<g><path style="opacity:1" fill="#111111" d="M 150.5,347.5 C 152.604,347.201 154.604,347.534 156.5,348.5C 157.667,350.833 158.833,353.167 160,355.5C 161.312,353.045 162.478,350.545 163.5,348C 165.579,347.192 167.579,347.359 169.5,348.5C 164.023,355.621 161.689,363.621 162.5,372.5C 160.833,372.5 159.167,372.5 157.5,372.5C 157.665,368.818 157.499,365.152 157,361.5C 154.548,356.932 152.382,352.265 150.5,347.5 Z"/></g>
<g><path style="opacity:1" fill="#171717" d="M 173.5,347.5 C 175.833,347.5 178.167,347.5 180.5,347.5C 182.249,355.914 184.249,364.247 186.5,372.5C 184.5,372.5 182.5,372.5 180.5,372.5C 180.5,371.167 180.5,369.833 180.5,368.5C 178.167,368.5 175.833,368.5 173.5,368.5C 173.241,372.068 171.241,373.401 167.5,372.5C 169.342,364.132 171.342,355.798 173.5,347.5 Z"/></g>
<g><path style="opacity:1" fill="#171717" d="M 211.5,347.5 C 213.5,347.5 215.5,347.5 217.5,347.5C 219.5,355.833 221.5,364.167 223.5,372.5C 219.759,373.401 217.759,372.068 217.5,368.5C 215.167,368.5 212.833,368.5 210.5,368.5C 210.5,369.833 210.5,371.167 210.5,372.5C 208.5,372.5 206.5,372.5 204.5,372.5C 206.366,364.034 208.7,355.701 211.5,347.5 Z"/></g>
<g><path style="opacity:1" fill="#070707" d="M 230.5,371.5 C 229.167,371.5 227.833,371.5 226.5,371.5C 226.5,363.833 226.5,356.167 226.5,348.5C 227.833,348.5 229.167,348.5 230.5,348.5C 232.892,352.278 235.059,356.278 237,360.5C 237.499,356.179 237.666,351.846 237.5,347.5C 239.167,347.5 240.833,347.5 242.5,347.5C 242.5,355.833 242.5,364.167 242.5,372.5C 240.712,372.785 239.045,372.452 237.5,371.5C 235.588,367.34 233.421,363.34 231,359.5C 230.501,363.486 230.334,367.486 230.5,371.5 Z"/></g>
<g><path style="opacity:1" fill="#090909" d="M 265.5,348.5 C 267.017,348.511 268.184,349.177 269,350.5C 271.311,358.535 268.478,362.868 260.5,363.5C 259.527,365.948 259.194,368.615 259.5,371.5C 258.167,371.5 256.833,371.5 255.5,371.5C 255.5,363.833 255.5,356.167 255.5,348.5C 258.833,348.5 262.167,348.5 265.5,348.5 Z"/></g>
<g><path style="opacity:1" fill="#0e0e0e" d="M 272.5,348.5 C 277.167,348.5 281.833,348.5 286.5,348.5C 286.5,349.833 286.5,351.167 286.5,352.5C 283.5,352.5 280.5,352.5 277.5,352.5C 277.232,354.099 277.566,355.432 278.5,356.5C 281.167,356.5 283.833,356.5 286.5,356.5C 286.5,358.167 286.5,359.833 286.5,361.5C 283.5,361.5 280.5,361.5 277.5,361.5C 277.216,363.415 277.549,365.081 278.5,366.5C 281.5,366.5 284.5,366.5 287.5,366.5C 287.5,368.5 287.5,370.5 287.5,372.5C 282.5,372.5 277.5,372.5 272.5,372.5C 272.5,364.5 272.5,356.5 272.5,348.5 Z"/></g>
<g><path style="opacity:1" fill="#0e0e0e" d="M 290.5,347.5 C 292.467,347.261 294.301,347.594 296,348.5C 298,352.5 300,356.5 302,360.5C 302.499,356.179 302.666,351.846 302.5,347.5C 304.167,347.5 305.833,347.5 307.5,347.5C 307.5,355.833 307.5,364.167 307.5,372.5C 305.533,372.739 303.699,372.406 302,371.5C 299.984,367.469 297.984,363.469 296,359.5C 295.501,363.821 295.334,368.154 295.5,372.5C 293.833,372.5 292.167,372.5 290.5,372.5C 290.5,364.167 290.5,355.833 290.5,347.5 Z"/></g>
<g><path style="opacity:1" fill="#0d0d0d" d="M 311.5,347.5 C 321.792,345.143 327.126,349.143 327.5,359.5C 327.649,370.339 322.316,374.672 311.5,372.5C 311.5,364.167 311.5,355.833 311.5,347.5 Z"/></g>
<g><path style="opacity:1" fill="#0d0d0d" d="M 340.5,347.5 C 350.792,345.143 356.126,349.143 356.5,359.5C 356.669,370.316 351.336,374.65 340.5,372.5C 340.5,364.167 340.5,355.833 340.5,347.5 Z"/></g>
<g><path style="opacity:1" fill="#141414" d="M 369.5,347.5 C 371.167,347.5 372.833,347.5 374.5,347.5C 374.335,350.518 374.502,353.518 375,356.5C 376.709,353.582 378.542,350.748 380.5,348C 382.902,347.186 385.235,347.353 387.5,348.5C 384.902,350.928 382.902,353.761 381.5,357C 383.288,361.707 385.455,366.207 388,370.5C 390.457,363.252 392.624,355.919 394.5,348.5C 396.421,347.359 398.421,347.192 400.5,348C 403.376,356.001 405.709,364.167 407.5,372.5C 405.5,372.5 403.5,372.5 401.5,372.5C 401.5,371.167 401.5,369.833 401.5,368.5C 399.143,368.337 396.81,368.503 394.5,369C 393.663,370.011 393.33,371.178 393.5,372.5C 389.445,372.824 385.445,372.491 381.5,371.5C 380.164,368.49 378.831,365.49 377.5,362.5C 374.857,365.266 373.857,368.599 374.5,372.5C 372.833,372.5 371.167,372.5 369.5,372.5C 369.5,364.167 369.5,355.833 369.5,347.5 Z"/></g>
<g><path style="opacity:1" fill="#090909" d="M 419.5,358.5 C 419.783,359.289 420.283,359.956 421,360.5C 421.499,356.514 421.666,352.514 421.5,348.5C 422.833,348.5 424.167,348.5 425.5,348.5C 425.5,356.167 425.5,363.833 425.5,371.5C 423.833,371.5 422.167,371.5 420.5,371.5C 418.952,367.402 417.119,363.402 415,359.5C 414.501,363.821 414.334,368.154 414.5,372.5C 412.833,372.5 411.167,372.5 409.5,372.5C 409.5,364.167 409.5,355.833 409.5,347.5C 411.467,347.261 413.301,347.594 415,348.5C 416.596,351.786 418.096,355.12 419.5,358.5 Z"/></g>
<g><path style="opacity:1" fill="#a2a2a2" d="M 421.5,347.5 C 421.5,347.833 421.5,348.167 421.5,348.5C 421.666,352.514 421.499,356.514 421,360.5C 420.283,359.956 419.783,359.289 419.5,358.5C 420.167,354.833 420.833,351.167 421.5,347.5 Z"/></g>
<g><path style="opacity:1" fill="#393939" d="M 230.5,348.5 C 229.167,348.5 227.833,348.5 226.5,348.5C 226.5,356.167 226.5,363.833 226.5,371.5C 227.833,371.5 229.167,371.5 230.5,371.5C 229.081,372.451 227.415,372.784 225.5,372.5C 225.5,364.167 225.5,355.833 225.5,347.5C 227.415,347.216 229.081,347.549 230.5,348.5 Z"/></g>
<g><path style="opacity:1" fill="#373737" d="M 265.5,348.5 C 262.167,348.5 258.833,348.5 255.5,348.5C 255.5,356.167 255.5,363.833 255.5,371.5C 256.833,371.5 258.167,371.5 259.5,371.5C 259.194,368.615 259.527,365.948 260.5,363.5C 260.5,366.5 260.5,369.5 260.5,372.5C 258.5,372.5 256.5,372.5 254.5,372.5C 254.5,364.167 254.5,355.833 254.5,347.5C 258.371,347.185 262.038,347.518 265.5,348.5 Z"/></g>
<g><path style="opacity:1" fill="#404040" d="M 421.5,348.5 C 421.5,348.167 421.5,347.833 421.5,347.5C 423.167,347.5 424.833,347.5 426.5,347.5C 426.5,355.833 426.5,364.167 426.5,372.5C 424.265,372.795 422.265,372.461 420.5,371.5C 422.167,371.5 423.833,371.5 425.5,371.5C 425.5,363.833 425.5,356.167 425.5,348.5C 424.167,348.5 422.833,348.5 421.5,348.5 Z"/></g>
<g><path style="opacity:1" fill="#464646" d="M 330.5,347.5 C 332.5,347.5 334.5,347.5 336.5,347.5C 336.5,355.833 336.5,364.167 336.5,372.5C 334.5,372.5 332.5,372.5 330.5,372.5C 330.5,364.167 330.5,355.833 330.5,347.5 Z"/></g>
<g><path style="opacity:1" fill="#000000" d="M 331.5,348.5 C 332.833,348.5 334.167,348.5 335.5,348.5C 335.5,356.167 335.5,363.833 335.5,371.5C 334.167,371.5 332.833,371.5 331.5,371.5C 331.5,363.833 331.5,356.167 331.5,348.5 Z"/></g>
<g><path style="opacity:1" fill="#434343" d="M 359.5,347.5 C 361.5,347.5 363.5,347.5 365.5,347.5C 365.5,355.833 365.5,364.167 365.5,372.5C 363.5,372.5 361.5,372.5 359.5,372.5C 359.5,364.167 359.5,355.833 359.5,347.5 Z"/></g>
<g><path style="opacity:1" fill="#000000" d="M 360.5,348.5 C 361.833,348.5 363.167,348.5 364.5,348.5C 364.5,356.167 364.5,363.833 364.5,371.5C 363.167,371.5 361.833,371.5 360.5,371.5C 360.5,363.833 360.5,356.167 360.5,348.5 Z"/></g>
<g><path style="opacity:1" fill="#909090" d="M 286.5,352.5 C 286.833,352.5 287.167,352.5 287.5,352.5C 284.713,353.477 281.713,353.81 278.5,353.5C 278.5,354.5 278.5,355.5 278.5,356.5C 277.566,355.432 277.232,354.099 277.5,352.5C 280.5,352.5 283.5,352.5 286.5,352.5 Z"/></g>
<g><path style="opacity:1" fill="#e7e7e7" d="M 260.5,352.5 C 264.273,352.657 265.273,354.324 263.5,357.5C 262.5,357.5 261.5,357.5 260.5,357.5C 260.5,355.833 260.5,354.167 260.5,352.5 Z"/></g>
<g><path style="opacity:1" fill="#e3e3e3" d="M 316.5,353.5 C 321.07,353.238 323.07,355.404 322.5,360C 323.07,364.596 321.07,366.762 316.5,366.5C 316.5,362.167 316.5,357.833 316.5,353.5 Z"/></g>
<g><path style="opacity:1" fill="#e6e6e6" d="M 345.5,353.5 C 349.824,353.158 351.824,355.158 351.5,359.5C 352.012,364.199 350.012,366.532 345.5,366.5C 345.5,362.167 345.5,357.833 345.5,353.5 Z"/></g>
<g><path style="opacity:1" fill="#6e6e6e" d="M 260.5,352.5 C 260.5,354.167 260.5,355.833 260.5,357.5C 261.5,357.5 262.5,357.5 263.5,357.5C 262.432,358.434 261.099,358.768 259.5,358.5C 259.205,356.265 259.539,354.265 260.5,352.5 Z"/></g>
<g><path style="opacity:1" fill="#c0c0c0" d="M 142.5,354.5 C 143.913,357.219 144.58,360.219 144.5,363.5C 143.167,363.5 141.833,363.5 140.5,363.5C 140.916,360.417 141.583,357.417 142.5,354.5 Z"/></g>
<g><path style="opacity:1" fill="#dbdbdb" d="M 176.5,354.5 C 178.04,356.838 178.706,359.505 178.5,362.5C 177.5,362.5 176.5,362.5 175.5,362.5C 175.575,359.794 175.908,357.127 176.5,354.5 Z"/></g>
<g><path style="opacity:1" fill="#dadada" d="M 213.5,354.5 C 215.223,356.78 215.889,359.447 215.5,362.5C 214.5,362.5 213.5,362.5 212.5,362.5C 212.575,359.794 212.908,357.127 213.5,354.5 Z"/></g>
<g><path style="opacity:1" fill="#bbbbbb" d="M 397.5,354.5 C 398.913,357.219 399.58,360.219 399.5,363.5C 398.167,363.5 396.833,363.5 395.5,363.5C 395.916,360.417 396.583,357.417 397.5,354.5 Z"/></g>
<g><path style="opacity:1" fill="#a2a2a2" d="M 286.5,361.5 C 284.052,362.473 281.385,362.806 278.5,362.5C 278.5,363.833 278.5,365.167 278.5,366.5C 277.549,365.081 277.216,363.415 277.5,361.5C 280.5,361.5 283.5,361.5 286.5,361.5 Z"/></g>
<g><path style="opacity:1" fill="#757575" d="M 122.5,361.5 C 123.479,364.625 123.813,367.958 123.5,371.5C 125.167,371.5 126.833,371.5 128.5,371.5C 126.735,372.461 124.735,372.795 122.5,372.5C 122.5,368.833 122.5,365.167 122.5,361.5 Z"/></g>
<g><path style="opacity:1" fill="#e89f98" d="M 320.5,384.5 C 318.265,384.205 316.265,384.539 314.5,385.5C 313.957,385.44 313.624,385.107 313.5,384.5C 315.973,383.203 318.307,383.203 320.5,384.5 Z"/></g>
<g><path style="opacity:1" fill="#ec9c98" d="M 385.5,384.5 C 391.645,383.51 397.978,383.177 404.5,383.5C 404.806,386.385 404.473,389.052 403.5,391.5C 403.5,389.167 403.5,386.833 403.5,384.5C 397.5,384.5 391.5,384.5 385.5,384.5 Z"/></g>
<g><path style="opacity:1" fill="#381970" d="M 498.5,344.5 C 497.209,346.619 495.375,348.285 493,349.5C 492.333,353.167 492.333,356.833 493,360.5C 495.133,361.418 497.3,361.584 499.5,361C 498.098,366.344 497.431,372.011 497.5,378C 497.471,382.765 498.471,387.265 500.5,391.5C 501.277,388.466 502.611,385.8 504.5,383.5C 504.833,384 505.167,384.5 505.5,385C 503.997,386.921 503.331,389.088 503.5,391.5C 504.5,391.5 505.5,391.5 506.5,391.5C 506.915,379.34 506.249,367.507 504.5,356C 506.134,355.506 507.801,355.34 509.5,355.5C 507.882,356.451 506.549,357.784 505.5,359.5C 511.715,379.572 509.048,398.238 497.5,415.5C 497.149,413.131 496.982,410.797 497,408.5C 498.008,408.018 499.175,407.852 500.5,408C 499.687,406.686 498.687,405.519 497.5,404.5C 498.85,402.98 500.183,402.313 501.5,402.5C 499.813,396.932 497.647,391.599 495,386.5C 494.242,388.769 494.409,390.936 495.5,393C 494.551,393.617 493.718,393.451 493,392.5C 492.64,394.608 491.973,396.608 491,398.5C 488.494,400.867 485.994,403.201 483.5,405.5C 487.503,398.155 491.003,390.488 494,382.5C 494.667,378.833 494.667,375.167 494,371.5C 490.913,364.463 489.913,357.13 491,349.5C 493.4,347.585 495.9,345.919 498.5,344.5 Z"/></g>
<g><path style="opacity:1" fill="#c62d30" d="M 79.5,385.5 C 80.8333,385.5 82.1667,385.5 83.5,385.5C 83.5,395.167 83.5,404.833 83.5,414.5C 82.1667,414.5 80.8333,414.5 79.5,414.5C 79.5,404.833 79.5,395.167 79.5,385.5 Z"/></g>
<g><path style="opacity:1" fill="#ea8f8d" d="M 107.5,384.5 C 105.833,384.5 104.167,384.5 102.5,384.5C 102.5,389.5 102.5,394.5 102.5,399.5C 101.699,401.793 101.032,401.46 100.5,398.5C 101.487,393.695 101.821,388.695 101.5,383.5C 103.735,383.205 105.735,383.539 107.5,384.5 Z"/></g>
<g><path style="opacity:1" fill="#c42f30" d="M 385.5,384.5 C 391.5,384.5 397.5,384.5 403.5,384.5C 403.5,386.833 403.5,389.167 403.5,391.5C 401.5,391.5 399.5,391.5 397.5,391.5C 397.5,399.5 397.5,407.5 397.5,415.5C 395.833,415.5 394.167,415.5 392.5,415.5C 392.825,407.648 392.492,399.982 391.5,392.5C 389.735,391.539 387.735,391.205 385.5,391.5C 385.5,389.167 385.5,386.833 385.5,384.5 Z"/></g>
<g><path style="opacity:1" fill="#c82e30" d="M 312.5,401.5 C 313.461,403.265 313.795,405.265 313.5,407.5C 313.674,409.861 314.007,412.194 314.5,414.5C 313.167,414.5 311.833,414.5 310.5,414.5C 309.37,407.827 308.203,401.161 307,394.5C 305.667,393.167 304.333,393.167 303,394.5C 302.814,396.9 302.314,399.234 301.5,401.5C 300.513,398.232 300.18,394.898 300.5,391.5C 301.738,389.786 302.405,387.786 302.5,385.5C 304.467,385.261 306.301,385.594 308,386.5C 308.333,389.5 308.667,392.5 309,395.5C 309.586,398.019 310.753,400.019 312.5,401.5 Z"/></g>
<g><path style="opacity:1" fill="#c03b3a" d="M 163.5,384.5 C 167.323,385.5 168.99,388 168.5,392C 168.793,395.98 167.46,399.146 164.5,401.5C 167.346,405.701 169.012,410.368 169.5,415.5C 167.208,415.756 165.041,415.423 163,414.5C 158.815,399.544 156.981,399.877 157.5,415.5C 155.5,415.5 153.5,415.5 151.5,415.5C 151.5,405.167 151.5,394.833 151.5,384.5C 155.5,384.5 159.5,384.5 163.5,384.5 Z"/></g>
<g><path style="opacity:1" fill="#c63435" d="M 254.5,384.5 C 256.5,384.5 258.5,384.5 260.5,384.5C 261.92,394.561 263.92,404.561 266.5,414.5C 265.167,414.5 263.833,414.5 262.5,414.5C 262.737,413.209 262.404,412.209 261.5,411.5C 259.167,410.167 256.833,410.167 254.5,411.5C 253.549,412.919 253.216,414.585 253.5,416.5C 251.5,416.5 249.5,416.5 247.5,416.5C 249.301,405.618 251.634,394.952 254.5,384.5 Z"/></g>
<g><path style="opacity:1" fill="#b96361" d="M 84.5,384.5 C 82.5853,384.216 80.9187,384.549 79.5,385.5C 79.5,395.167 79.5,404.833 79.5,414.5C 80.9187,415.451 82.5853,415.784 84.5,415.5C 82.7354,416.461 80.7354,416.795 78.5,416.5C 78.5,405.5 78.5,394.5 78.5,383.5C 80.7354,383.205 82.7354,383.539 84.5,384.5 Z"/></g>
<g><path style="opacity:1" fill="#ab3a39" d="M 79.5,385.5 C 80.9187,384.549 82.5853,384.216 84.5,384.5C 84.5,394.833 84.5,405.167 84.5,415.5C 82.5853,415.784 80.9187,415.451 79.5,414.5C 80.8333,414.5 82.1667,414.5 83.5,414.5C 83.5,404.833 83.5,395.167 83.5,385.5C 82.1667,385.5 80.8333,385.5 79.5,385.5 Z"/></g>
<g><path style="opacity:1" fill="#c83233" d="M 137.5,391.5 C 137.5,392.833 137.5,394.167 137.5,395.5C 140.5,395.5 143.5,395.5 146.5,395.5C 146.5,397.833 146.5,400.167 146.5,402.5C 143.5,402.5 140.5,402.5 137.5,402.5C 136.007,403.312 135.34,404.645 135.5,406.5C 135.57,407.772 135.903,408.938 136.5,410C 139.817,410.498 143.15,410.665 146.5,410.5C 146.5,411.833 146.5,413.167 146.5,414.5C 141.833,414.5 137.167,414.5 132.5,414.5C 132.5,404.833 132.5,395.167 132.5,385.5C 137.167,385.5 141.833,385.5 146.5,385.5C 146.5,386.833 146.5,388.167 146.5,389.5C 142.988,388.945 139.988,389.612 137.5,391.5 Z"/></g>
<g><path style="opacity:1" fill="#eeb1ad" d="M 439.5,384.5 C 442.287,383.523 445.287,383.19 448.5,383.5C 448.828,394.346 448.494,405.013 447.5,415.5C 447.5,405.167 447.5,394.833 447.5,384.5C 444.833,384.5 442.167,384.5 439.5,384.5 Z"/></g>
<g><path style="opacity:1" fill="#e18588" d="M 179.5,384.5 C 177.167,384.5 174.833,384.5 172.5,384.5C 172.5,394.833 172.5,405.167 172.5,415.5C 171.506,405.013 171.172,394.346 171.5,383.5C 174.385,383.194 177.052,383.527 179.5,384.5 Z"/></g>
<g><path style="opacity:1" fill="#fdc6c3" d="M 370.5,384.5 C 368.5,384.5 366.5,384.5 364.5,384.5C 364.5,391.167 364.5,397.833 364.5,404.5C 363.509,397.687 363.175,390.687 363.5,383.5C 366.059,383.198 368.393,383.532 370.5,384.5 Z"/></g>
<g><path style="opacity:1" fill="#c33535" d="M 320.5,384.5 C 321.651,387.474 322.817,390.474 324,393.5C 325.442,390.95 326.608,388.284 327.5,385.5C 329.765,384.353 332.098,384.186 334.5,385C 332.024,390.783 329.691,396.617 327.5,402.5C 326.515,406.634 326.182,410.968 326.5,415.5C 324.833,415.5 323.167,415.5 321.5,415.5C 321.666,410.821 321.499,406.155 321,401.5C 318.544,396.259 316.377,390.925 314.5,385.5C 316.265,384.539 318.265,384.205 320.5,384.5 Z"/></g>
<g><path style="opacity:1" fill="#c13f3e" d="M 417.5,414.5 C 417.5,413.167 417.5,411.833 417.5,410.5C 414.833,410.5 412.167,410.5 409.5,410.5C 409.611,409.883 409.944,409.383 410.5,409C 416.187,406.963 418.854,408.796 418.5,414.5C 419.873,414.657 421.207,414.49 422.5,414C 422,413.5 421.5,413 421,412.5C 421.009,406.564 419.842,400.898 417.5,395.5C 416.832,398.306 416.166,400.972 415.5,403.5C 413.718,391.706 412.384,391.706 411.5,403.5C 410.681,400.695 410.181,397.695 410,394.5C 409.667,394.833 409.333,395.167 409,395.5C 407.729,401.914 406.229,408.248 404.5,414.5C 405.833,414.5 407.167,414.5 408.5,414.5C 408.263,413.209 408.596,412.209 409.5,411.5C 409.768,413.099 409.434,414.432 408.5,415.5C 406.219,415.923 404.552,415.256 403.5,413.5C 405.341,403.801 407.341,394.134 409.5,384.5C 412.167,384.5 414.833,384.5 417.5,384.5C 419.503,394.84 421.503,405.173 423.5,415.5C 421.265,415.795 419.265,415.461 417.5,414.5 Z"/></g>
<g><path style="opacity:1" fill="#c1524f" d="M 137.5,391.5 C 139.988,389.612 142.988,388.945 146.5,389.5C 146.5,388.167 146.5,386.833 146.5,385.5C 141.833,385.5 137.167,385.5 132.5,385.5C 132.5,395.167 132.5,404.833 132.5,414.5C 137.167,414.5 141.833,414.5 146.5,414.5C 146.5,413.167 146.5,411.833 146.5,410.5C 143.15,410.665 139.817,410.498 136.5,410C 135.903,408.938 135.57,407.772 135.5,406.5C 135.34,404.645 136.007,403.312 137.5,402.5C 137.5,404.5 137.5,406.5 137.5,408.5C 140.833,408.5 144.167,408.5 147.5,408.5C 147.5,411.167 147.5,413.833 147.5,416.5C 142.167,416.5 136.833,416.5 131.5,416.5C 131.5,405.5 131.5,394.5 131.5,383.5C 136.833,383.5 142.167,383.5 147.5,383.5C 147.5,386.167 147.5,388.833 147.5,391.5C 144.167,391.5 140.833,391.5 137.5,391.5 Z"/></g>
<g><path style="opacity:1" fill="#be4140" d="M 179.5,384.5 C 181.044,389.606 182.044,394.939 182.5,400.5C 180.87,398.974 180.037,396.974 180,394.5C 179.908,400.498 180.241,406.498 181,412.5C 182.461,414.982 183.961,414.982 185.5,412.5C 185.5,413.833 185.5,415.167 185.5,416.5C 183.833,416.5 182.167,416.5 180.5,416.5C 179.893,411.149 179.226,405.816 178.5,400.5C 178.313,398.436 177.813,396.436 177,394.5C 176.5,401.492 176.334,408.492 176.5,415.5C 175.167,415.5 173.833,415.5 172.5,415.5C 172.5,405.167 172.5,394.833 172.5,384.5C 174.833,384.5 177.167,384.5 179.5,384.5 Z"/></g>
<g><path style="opacity:1" fill="#b93c3b" d="M 370.5,384.5 C 370.334,391.841 370.5,399.174 371,406.5C 373.435,409.228 375.435,408.894 377,405.5C 377.5,398.508 377.666,391.508 377.5,384.5C 377.833,384.5 378.167,384.5 378.5,384.5C 378.031,393.336 378.531,402.003 380,410.5C 381.376,401.902 381.876,393.235 381.5,384.5C 382.492,391.982 382.825,399.648 382.5,407.5C 380.827,416.338 376.16,418.671 368.5,414.5C 365.54,411.9 364.206,408.567 364.5,404.5C 364.5,397.833 364.5,391.167 364.5,384.5C 366.5,384.5 368.5,384.5 370.5,384.5 Z"/></g>
<g><path style="opacity:1" fill="#ca2c2f" d="M 378.5,384.5 C 379.5,384.5 380.5,384.5 381.5,384.5C 381.876,393.235 381.376,401.902 380,410.5C 378.531,402.003 378.031,393.336 378.5,384.5 Z"/></g>
<g><path style="opacity:1" fill="#c03636" d="M 433.5,384.5 C 434.825,389.674 435.991,395.007 437,400.5C 437.727,395.137 438.561,389.803 439.5,384.5C 442.167,384.5 444.833,384.5 447.5,384.5C 447.5,394.833 447.5,405.167 447.5,415.5C 446.167,415.5 444.833,415.5 443.5,415.5C 443.5,409.5 443.5,403.5 443.5,397.5C 442.167,397.5 441.5,398.167 441.5,399.5C 440.616,404.804 439.949,410.137 439.5,415.5C 437.833,415.5 436.167,415.5 434.5,415.5C 433.704,410.853 433.037,406.186 432.5,401.5C 432.579,398.729 432.079,396.063 431,393.5C 430.5,400.826 430.334,408.159 430.5,415.5C 429.167,415.5 427.833,415.5 426.5,415.5C 426.5,405.167 426.5,394.833 426.5,384.5C 428.833,384.5 431.167,384.5 433.5,384.5 Z"/></g>
<g><path style="opacity:1" fill="#bd6a69" d="M 244.5,384.5 C 242.833,384.5 241.167,384.5 239.5,384.5C 239.5,394.833 239.5,405.167 239.5,415.5C 241.167,415.5 242.833,415.5 244.5,415.5C 242.735,416.461 240.735,416.795 238.5,416.5C 238.5,405.5 238.5,394.5 238.5,383.5C 240.735,383.205 242.735,383.539 244.5,384.5 Z"/></g>
<g><path style="opacity:1" fill="#bd3132" d="M 244.5,384.5 C 244.5,394.833 244.5,405.167 244.5,415.5C 242.833,415.5 241.167,415.5 239.5,415.5C 239.5,405.167 239.5,394.833 239.5,384.5C 241.167,384.5 242.833,384.5 244.5,384.5 Z"/></g>
<g><path style="opacity:1" fill="#e49090" d="M 213.5,390.5 C 210.713,391.477 207.713,391.81 204.5,391.5C 204.5,392.833 204.5,394.167 204.5,395.5C 207.5,395.5 210.5,395.5 213.5,395.5C 213.802,398.059 213.468,400.393 212.5,402.5C 212.5,400.5 212.5,398.5 212.5,396.5C 209.5,396.5 206.5,396.5 203.5,396.5C 203.5,394.5 203.5,392.5 203.5,390.5C 206.833,390.5 210.167,390.5 213.5,390.5 Z"/></g>
<g><path style="opacity:1" fill="#bf4946" d="M 312.5,401.5 C 310.753,400.019 309.586,398.019 309,395.5C 308.667,392.5 308.333,389.5 308,386.5C 306.301,385.594 304.467,385.261 302.5,385.5C 302.405,387.786 301.738,389.786 300.5,391.5C 300.674,389.139 301.007,386.806 301.5,384.5C 304.167,384.5 306.833,384.5 309.5,384.5C 310.628,390.141 311.628,395.808 312.5,401.5 Z"/></g>
<g><path style="opacity:1" fill="#f6c5c5" d="M 110.5,391.5 C 111.167,391.5 111.833,391.5 112.5,391.5C 113.833,391.5 115.167,391.5 116.5,391.5C 116.5,399.5 116.5,407.5 116.5,415.5C 118.5,415.5 120.5,415.5 122.5,415.5C 120.393,416.468 118.059,416.802 115.5,416.5C 115.5,408.5 115.5,400.5 115.5,392.5C 113.585,392.784 111.919,392.451 110.5,391.5 Z"/></g>
<g><path style="opacity:1" fill="#c92c2e" d="M 157.5,396.5 C 159.357,397.754 161.357,397.754 163.5,396.5C 164.123,394.034 164.957,391.701 166,389.5C 166.659,393.715 166.159,397.715 164.5,401.5C 160.881,402.18 157.214,402.68 153.5,403C 155.377,406.494 156.044,410.327 155.5,414.5C 154.5,414.5 153.5,414.5 152.5,414.5C 152.5,405.167 152.5,395.833 152.5,386.5C 156.167,386.5 159.833,386.5 163.5,386.5C 163.5,387.5 163.5,388.5 163.5,389.5C 160.833,389.5 158.167,389.5 155.5,389.5C 154.99,392.388 155.656,394.721 157.5,396.5 Z"/></g>
<g><path style="opacity:1" fill="#ffeeec" d="M 157.5,396.5 C 157.5,394.5 157.5,392.5 157.5,390.5C 162.159,390.015 163.492,391.848 161.5,396C 160.207,396.49 158.873,396.657 157.5,396.5 Z"/></g>
<g><path style="opacity:1" fill="#de807f" d="M 377.5,384.5 C 379.265,383.539 381.265,383.205 383.5,383.5C 383.826,391.684 383.492,399.684 382.5,407.5C 382.825,399.648 382.492,391.982 381.5,384.5C 380.5,384.5 379.5,384.5 378.5,384.5C 378.167,384.5 377.833,384.5 377.5,384.5 Z"/></g>
<g><path style="opacity:1" fill="#b33939" d="M 107.5,384.5 C 107.5,394.833 107.5,405.167 107.5,415.5C 105.5,415.5 103.5,415.5 101.5,415.5C 99.7741,410.383 97.7741,405.383 95.5,400.5C 96.3764,400.369 97.0431,400.702 97.5,401.5C 99.4656,405.345 101.132,409.345 102.5,413.5C 103.689,414.429 105.022,414.762 106.5,414.5C 106.5,404.833 106.5,395.167 106.5,385.5C 105.5,385.5 104.5,385.5 103.5,385.5C 103.819,390.363 103.486,395.03 102.5,399.5C 102.5,394.5 102.5,389.5 102.5,384.5C 104.167,384.5 105.833,384.5 107.5,384.5 Z"/></g>
<g><path style="opacity:1" fill="#f7c3c2" d="M 107.5,384.5 C 108.494,394.987 108.828,405.654 108.5,416.5C 105.941,416.802 103.607,416.468 101.5,415.5C 103.5,415.5 105.5,415.5 107.5,415.5C 107.5,405.167 107.5,394.833 107.5,384.5 Z"/></g>
<g><path style="opacity:1" fill="#ba4644" d="M 122.5,415.5 C 120.5,415.5 118.5,415.5 116.5,415.5C 116.5,407.5 116.5,399.5 116.5,391.5C 117.492,398.982 117.825,406.648 117.5,414.5C 118.5,414.5 119.5,414.5 120.5,414.5C 120.334,406.826 120.5,399.159 121,391.5C 123.041,390.577 125.208,390.244 127.5,390.5C 127.714,388.856 127.38,387.356 126.5,386C 121.511,385.501 116.511,385.334 111.5,385.5C 111.325,387.621 111.659,389.621 112.5,391.5C 111.833,391.5 111.167,391.5 110.5,391.5C 110.5,388.833 110.5,386.167 110.5,383.5C 116.5,383.5 122.5,383.5 128.5,383.5C 128.5,386.167 128.5,388.833 128.5,391.5C 126.5,391.5 124.5,391.5 122.5,391.5C 122.5,399.5 122.5,407.5 122.5,415.5 Z"/></g>
<g><path style="opacity:1" fill="#c82d2f" d="M 116.5,391.5 C 115.167,391.5 113.833,391.5 112.5,391.5C 111.659,389.621 111.325,387.621 111.5,385.5C 116.511,385.334 121.511,385.501 126.5,386C 127.38,387.356 127.714,388.856 127.5,390.5C 125.208,390.244 123.041,390.577 121,391.5C 120.5,399.159 120.334,406.826 120.5,414.5C 119.5,414.5 118.5,414.5 117.5,414.5C 117.825,406.648 117.492,398.982 116.5,391.5 Z"/></g>
<g><path style="opacity:1" fill="#bf4c49" d="M 254.5,384.5 C 256.607,383.532 258.941,383.198 261.5,383.5C 263.498,393.158 265.498,402.824 267.5,412.5C 267.5,413.5 267.5,414.5 267.5,415.5C 265.5,415.5 263.5,415.5 261.5,415.5C 261.5,414.5 261.5,413.5 261.5,412.5C 261.5,412.167 261.5,411.833 261.5,411.5C 262.404,412.209 262.737,413.209 262.5,414.5C 263.833,414.5 265.167,414.5 266.5,414.5C 263.92,404.561 261.92,394.561 260.5,384.5C 258.5,384.5 256.5,384.5 254.5,384.5 Z"/></g>
<g><path style="opacity:1" fill="#c92d2e" d="M 368.5,414.5 C 365.61,405.415 364.777,396.082 366,386.5C 366.414,386.043 366.914,385.709 367.5,385.5C 368.167,393.167 368.833,400.833 369.5,408.5C 370.468,409.489 371.635,410.156 373,410.5C 377.176,408.509 379.009,409.842 378.5,414.5C 375.167,414.5 371.833,414.5 368.5,414.5 Z"/></g>
<g><path style="opacity:1" fill="#cd6c6a" d="M 391.5,392.5 C 392.492,399.982 392.825,407.648 392.5,415.5C 394.167,415.5 395.833,415.5 397.5,415.5C 395.735,416.461 393.735,416.795 391.5,416.5C 391.5,408.5 391.5,400.5 391.5,392.5 Z"/></g>
<g><path style="opacity:1" fill="#efb2b1" d="M 403.5,391.5 C 402.081,392.451 400.415,392.784 398.5,392.5C 398.825,400.352 398.492,408.018 397.5,415.5C 397.5,407.5 397.5,399.5 397.5,391.5C 399.5,391.5 401.5,391.5 403.5,391.5 Z"/></g>
<g><path style="opacity:1" fill="#fcdcda" d="M 415.5,403.5 C 414.167,403.5 412.833,403.5 411.5,403.5C 412.384,391.706 413.718,391.706 415.5,403.5 Z"/></g>
<g><path style="opacity:1" fill="#e2a09d" d="M 185.5,384.5 C 188.287,383.523 191.287,383.19 194.5,383.5C 194.828,394.346 194.494,405.013 193.5,415.5C 193.5,405.167 193.5,394.833 193.5,384.5C 190.833,384.5 188.167,384.5 185.5,384.5 Z"/></g>
<g><path style="opacity:1" fill="#c82f31" d="M 341.5,396.5 C 341.552,398.903 341.219,401.236 340.5,403.5C 340.082,404.222 339.416,404.722 338.5,405C 339.059,405.725 339.392,406.558 339.5,407.5C 338.268,410.076 336.768,412.41 335,414.5C 333.97,414.164 333.47,413.497 333.5,412.5C 333.205,410.265 333.539,408.265 334.5,406.5C 335.117,406.389 335.617,406.056 336,405.5C 336.971,399.315 338.471,393.315 340.5,387.5C 344.787,385.6 346.787,387.1 346.5,392C 346.167,393.167 345.833,394.333 345.5,395.5C 342.918,391.2 341.584,391.533 341.5,396.5 Z"/></g>
<g><path style="opacity:1" fill="#c52e30" d="M 173.5,385.5 C 179.367,385.206 181.033,387.872 178.5,393.5C 177.575,392.359 176.741,392.359 176,393.5C 175.831,400.524 175.331,407.524 174.5,414.5C 173.502,404.856 173.168,395.19 173.5,385.5 Z"/></g>
<g><path style="opacity:1" fill="#c24644" d="M 217.5,383.5 C 230.344,381.511 236.344,387.011 235.5,400C 236.365,412.967 230.365,418.467 217.5,416.5C 217.5,405.5 217.5,394.5 217.5,383.5 Z"/></g>
<g><path style="opacity:1" fill="#ca2c2e" d="M 223.5,408.5 C 226.308,410.167 228.475,409.5 230,406.5C 230.171,401.136 230.671,395.802 231.5,390.5C 232.923,392.777 233.589,395.277 233.5,398C 232.836,402.479 232.502,406.979 232.5,411.5C 231.167,411.5 229.833,411.5 228.5,411.5C 228.5,412.5 228.5,413.5 228.5,414.5C 225.167,414.5 221.833,414.5 218.5,414.5C 218.5,405.167 218.5,395.833 218.5,386.5C 221.833,386.5 225.167,386.5 228.5,386.5C 228.5,387.5 228.5,388.5 228.5,389.5C 226.5,389.5 224.5,389.5 222.5,389.5C 222.177,396.022 222.51,402.355 223.5,408.5 Z"/></g>
<g><path style="opacity:1" fill="#fef0ef" d="M 223.5,408.5 C 223.5,402.833 223.5,397.167 223.5,391.5C 225.144,391.286 226.644,391.62 228,392.5C 230,397.5 230,402.5 228,407.5C 226.644,408.38 225.144,408.714 223.5,408.5 Z"/></g>
<g><path style="opacity:1" fill="#fdada8" d="M 432.5,401.5 C 431.833,406.167 431.167,410.833 430.5,415.5C 430.334,408.159 430.5,400.826 431,393.5C 432.079,396.063 432.579,398.729 432.5,401.5 Z"/></g>
<g><path style="opacity:1" fill="#c92d2f" d="M 100.5,398.5 C 101.032,401.46 101.699,401.793 102.5,399.5C 103.486,395.03 103.819,390.363 103.5,385.5C 104.5,385.5 105.5,385.5 106.5,385.5C 106.5,395.167 106.5,404.833 106.5,414.5C 105.022,414.762 103.689,414.429 102.5,413.5C 101.132,409.345 99.4656,405.345 97.5,401.5C 97.0431,400.702 96.3764,400.369 95.5,400.5C 95.5,399.833 95.1667,399.5 94.5,399.5C 93.5128,404.305 93.1795,409.305 93.5,414.5C 92.5,414.5 91.5,414.5 90.5,414.5C 90.5,404.833 90.5,395.167 90.5,385.5C 91.8333,385.5 93.1667,385.5 94.5,385.5C 95.3784,390.522 97.3784,394.855 100.5,398.5 Z"/></g>
<g><path style="opacity:1" fill="#fbdbd8" d="M 257.5,395.5 C 259.04,397.838 259.706,400.505 259.5,403.5C 258.167,403.5 256.833,403.5 255.5,403.5C 255.858,400.733 256.525,398.067 257.5,395.5 Z"/></g>
<g><path style="opacity:1" fill="#c43b3a" d="M 300.5,391.5 C 300.18,394.898 300.513,398.232 301.5,401.5C 302.314,399.234 302.814,396.9 303,394.5C 304.333,393.167 305.667,393.167 307,394.5C 308.203,401.161 309.37,407.827 310.5,414.5C 311.833,414.5 313.167,414.5 314.5,414.5C 314.007,412.194 313.674,409.861 313.5,407.5C 315.118,410.171 315.785,413.171 315.5,416.5C 313.265,416.795 311.265,416.461 309.5,415.5C 309.714,413.856 309.38,412.356 308.5,411C 306.19,410.503 303.857,410.337 301.5,410.5C 301.5,412.167 301.5,413.833 301.5,415.5C 298.918,415.975 296.918,415.308 295.5,413.5C 296.749,405.975 298.415,398.641 300.5,391.5 Z"/></g>
<g><path style="opacity:1" fill="#fde1df" d="M 304.5,394.5 C 305.117,394.611 305.617,394.944 306,395.5C 306.497,398.146 306.664,400.813 306.5,403.5C 305.5,403.5 304.5,403.5 303.5,403.5C 303.508,400.455 303.841,397.455 304.5,394.5 Z"/></g>
<g><path style="opacity:1" fill="#cb2c2d" d="M 443.5,397.5 C 443.5,396.167 443.5,394.833 443.5,393.5C 442.5,393.5 441.5,393.5 440.5,393.5C 440.5,390.833 440.5,388.167 440.5,385.5C 442.5,385.5 444.5,385.5 446.5,385.5C 446.832,395.19 446.498,404.856 445.5,414.5C 444.833,408.681 444.167,403.014 443.5,397.5 Z"/></g>
<g><path style="opacity:1" fill="#d37577" d="M 433.5,384.5 C 431.167,384.5 428.833,384.5 426.5,384.5C 426.5,394.833 426.5,405.167 426.5,415.5C 427.833,415.5 429.167,415.5 430.5,415.5C 429.081,416.451 427.415,416.784 425.5,416.5C 425.5,405.5 425.5,394.5 425.5,383.5C 428.385,383.194 431.052,383.527 433.5,384.5 Z"/></g>
<g><path style="opacity:1" fill="#bf534f" d="M 100.5,398.5 C 97.3784,394.855 95.3784,390.522 94.5,385.5C 93.1667,385.5 91.8333,385.5 90.5,385.5C 90.5,395.167 90.5,404.833 90.5,414.5C 91.5,414.5 92.5,414.5 93.5,414.5C 93.1795,409.305 93.5128,404.305 94.5,399.5C 94.5,404.833 94.5,410.167 94.5,415.5C 92.5,415.5 90.5,415.5 88.5,415.5C 88.3335,405.161 88.5002,394.828 89,384.5C 91,383.167 93,383.167 95,384.5C 97.1235,389.076 98.9569,393.743 100.5,398.5 Z"/></g>
<g><path style="opacity:1" fill="#d88f8f" d="M 163.5,384.5 C 159.5,384.5 155.5,384.5 151.5,384.5C 151.5,394.833 151.5,405.167 151.5,415.5C 150.506,405.013 150.172,394.346 150.5,383.5C 155.032,383.182 159.366,383.515 163.5,384.5 Z"/></g>
<g><path style="opacity:1" fill="#e09393" d="M 189.5,415.5 C 188.833,410.167 188.167,404.833 187.5,399.5C 187.687,397.436 188.187,395.436 189,393.5C 189.5,400.826 189.666,408.159 189.5,415.5 Z"/></g>
<g><path style="opacity:1" fill="#c33c3b" d="M 352.5,412.5 C 352.5,413.5 352.5,414.5 352.5,415.5C 350.5,415.5 348.5,415.5 346.5,415.5C 346.5,413.833 346.5,412.167 346.5,410.5C 344.143,410.337 341.81,410.503 339.5,411C 338.62,412.356 338.286,413.856 338.5,415.5C 336.735,416.461 334.735,416.795 332.5,416.5C 332.232,414.901 332.566,413.568 333.5,412.5C 333.47,413.497 333.97,414.164 335,414.5C 336.768,412.41 338.268,410.076 339.5,407.5C 339.392,406.558 339.059,405.725 338.5,405C 339.416,404.722 340.082,404.222 340.5,403.5C 341.833,403.5 343.167,403.5 344.5,403.5C 344.196,400.478 343.696,397.478 343,394.5C 342.722,395.416 342.222,396.082 341.5,396.5C 341.584,391.533 342.918,391.2 345.5,395.5C 345.833,394.333 346.167,393.167 346.5,392C 346.787,387.1 344.787,385.6 340.5,387.5C 338.471,393.315 336.971,399.315 336,405.5C 335.617,406.056 335.117,406.389 334.5,406.5C 335.379,399.318 337.045,392.318 339.5,385.5C 341.833,384.167 344.167,384.167 346.5,385.5C 348.973,394.392 350.973,403.392 352.5,412.5 Z"/></g>
<g><path style="opacity:1" fill="#ffe1de" d="M 340.5,403.5 C 341.219,401.236 341.552,398.903 341.5,396.5C 342.222,396.082 342.722,395.416 343,394.5C 343.696,397.478 344.196,400.478 344.5,403.5C 343.167,403.5 341.833,403.5 340.5,403.5 Z"/></g>
<g><path style="opacity:1" fill="#cc6d6f" d="M 327.5,402.5 C 327.5,407.167 327.5,411.833 327.5,416.5C 325.265,416.795 323.265,416.461 321.5,415.5C 323.167,415.5 324.833,415.5 326.5,415.5C 326.182,410.968 326.515,406.634 327.5,402.5 Z"/></g>
<g><path style="opacity:1" fill="#ce8285" d="M 443.5,397.5 C 443.5,403.5 443.5,409.5 443.5,415.5C 444.833,415.5 446.167,415.5 447.5,415.5C 446.081,416.451 444.415,416.784 442.5,416.5C 442.822,410.642 442.489,404.975 441.5,399.5C 441.5,398.167 442.167,397.5 443.5,397.5 Z"/></g>
<g><path style="opacity:1" fill="#f79c99" d="M 178.5,400.5 C 177.833,405.5 177.167,410.5 176.5,415.5C 176.334,408.492 176.5,401.492 177,394.5C 177.813,396.436 178.313,398.436 178.5,400.5 Z"/></g>
<g><path style="opacity:1" fill="#c43131" d="M 185.5,384.5 C 188.167,384.5 190.833,384.5 193.5,384.5C 193.5,394.833 193.5,405.167 193.5,415.5C 192.167,415.5 190.833,415.5 189.5,415.5C 189.666,408.159 189.5,400.826 189,393.5C 188.187,395.436 187.687,397.436 187.5,399.5C 187.313,403.913 186.646,408.246 185.5,412.5C 183.961,414.982 182.461,414.982 181,412.5C 180.241,406.498 179.908,400.498 180,394.5C 180.037,396.974 180.87,398.974 182.5,400.5C 184.284,395.433 185.284,390.1 185.5,384.5 Z"/></g>
<g><path style="opacity:1" fill="#c53636" d="M 213.5,390.5 C 210.167,390.5 206.833,390.5 203.5,390.5C 203.5,392.5 203.5,394.5 203.5,396.5C 206.5,396.5 209.5,396.5 212.5,396.5C 212.5,398.5 212.5,400.5 212.5,402.5C 209.5,402.5 206.5,402.5 203.5,402.5C 203.5,404.5 203.5,406.5 203.5,408.5C 206.625,409.479 209.958,409.813 213.5,409.5C 213.5,411.5 213.5,413.5 213.5,415.5C 208.167,415.5 202.833,415.5 197.5,415.5C 197.5,404.833 197.5,394.167 197.5,383.5C 202.833,383.5 208.167,383.5 213.5,383.5C 213.5,385.833 213.5,388.167 213.5,390.5 Z"/></g>
<g><path style="opacity:1" fill="#c33637" d="M 287.5,384.5 C 289.5,384.5 291.5,384.5 293.5,384.5C 293.917,393.915 293.417,403.248 292,412.5C 284.74,418.906 279.906,417.24 277.5,407.5C 277.608,406.558 277.941,405.725 278.5,405C 280.134,404.506 281.801,404.34 283.5,404.5C 283.176,407.694 284.342,408.694 287,407.5C 287.5,399.841 287.666,392.174 287.5,384.5 Z"/></g>
<g><path style="opacity:1" fill="#ca2d2f" d="M 411.5,403.5 C 412.833,403.5 414.167,403.5 415.5,403.5C 416.166,400.972 416.832,398.306 417.5,395.5C 419.842,400.898 421.009,406.564 421,412.5C 421.5,413 422,413.5 422.5,414C 421.207,414.49 419.873,414.657 418.5,414.5C 418.854,408.796 416.187,406.963 410.5,409C 409.944,409.383 409.611,409.883 409.5,410.5C 409.5,410.833 409.5,411.167 409.5,411.5C 408.596,412.209 408.263,413.209 408.5,414.5C 407.167,414.5 405.833,414.5 404.5,414.5C 406.229,408.248 407.729,401.914 409,395.5C 409.333,395.167 409.667,394.833 410,394.5C 410.181,397.695 410.681,400.695 411.5,403.5 Z"/></g>
<g><path style="opacity:1" fill="#fdb5b6" d="M 254.5,411.5 C 256.833,410.167 259.167,410.167 261.5,411.5C 261.5,411.833 261.5,412.167 261.5,412.5C 259.283,411.631 256.95,411.298 254.5,411.5 Z"/></g>
<g><path style="opacity:1" fill="#fab2b1" d="M 409.5,411.5 C 409.5,411.167 409.5,410.833 409.5,410.5C 412.167,410.5 414.833,410.5 417.5,410.5C 417.5,411.833 417.5,413.167 417.5,414.5C 416.596,413.791 416.263,412.791 416.5,411.5C 414.167,411.5 411.833,411.5 409.5,411.5 Z"/></g>
<g><path style="opacity:1" fill="#c23636" d="M 464.5,415.5 C 464.714,413.856 464.38,412.356 463.5,411C 461.19,410.503 458.857,410.337 456.5,410.5C 457.17,413.59 456.003,415.257 453,415.5C 451.624,415.316 450.791,414.649 450.5,413.5C 452.331,404.521 454.164,395.521 456,386.5C 458.179,384.363 460.679,384.029 463.5,385.5C 466.474,395.343 468.808,405.343 470.5,415.5C 468.5,415.5 466.5,415.5 464.5,415.5 Z"/></g>
<g><path style="opacity:1" fill="#fddfdd" d="M 459.5,394.5 C 460.117,394.611 460.617,394.944 461,395.5C 461.497,398.146 461.664,400.813 461.5,403.5C 460.5,403.5 459.5,403.5 458.5,403.5C 458.508,400.455 458.841,397.455 459.5,394.5 Z"/></g>
<g><path style="opacity:1" fill="#f6cecd" d="M 352.5,412.5 C 353.434,413.568 353.768,414.901 353.5,416.5C 350.833,416.5 348.167,416.5 345.5,416.5C 345.915,414.052 344.915,412.719 342.5,412.5C 340.959,413.286 339.626,414.286 338.5,415.5C 338.286,413.856 338.62,412.356 339.5,411C 341.81,410.503 344.143,410.337 346.5,410.5C 346.5,412.167 346.5,413.833 346.5,415.5C 348.5,415.5 350.5,415.5 352.5,415.5C 352.5,414.5 352.5,413.5 352.5,412.5 Z"/></g>
<g><path style="opacity:1" fill="#f6cecd" d="M 464.5,415.5 C 463.374,414.286 462.041,413.286 460.5,412.5C 458.085,412.719 457.085,414.052 457.5,416.5C 454.833,416.5 452.167,416.5 449.5,416.5C 449.263,415.209 449.596,414.209 450.5,413.5C 450.791,414.649 451.624,415.316 453,415.5C 456.003,415.257 457.17,413.59 456.5,410.5C 458.857,410.337 461.19,410.503 463.5,411C 464.38,412.356 464.714,413.856 464.5,415.5 Z"/></g>
<g><path style="opacity:1" fill="#f6d1cf" d="M 309.5,415.5 C 308.374,414.286 307.041,413.286 305.5,412.5C 303.085,412.719 302.085,414.052 302.5,416.5C 299.833,416.5 297.167,416.5 294.5,416.5C 294.263,415.209 294.596,414.209 295.5,413.5C 296.918,415.308 298.918,415.975 301.5,415.5C 301.5,413.833 301.5,412.167 301.5,410.5C 303.857,410.337 306.19,410.503 308.5,411C 309.38,412.356 309.714,413.856 309.5,415.5 Z"/></g>
<g><path style="opacity:1" fill="#cd8389" d="M 203.5,408.5 C 207.167,408.5 210.833,408.5 214.5,408.5C 214.5,411.167 214.5,413.833 214.5,416.5C 208.642,416.822 202.975,416.489 197.5,415.5C 202.833,415.5 208.167,415.5 213.5,415.5C 213.5,413.5 213.5,411.5 213.5,409.5C 209.958,409.813 206.625,409.479 203.5,408.5 Z"/></g>
<g><path style="opacity:1" fill="#d59a9b" d="M 267.5,412.5 C 268.434,413.568 268.768,414.901 268.5,416.5C 265.941,416.802 263.607,416.468 261.5,415.5C 263.5,415.5 265.5,415.5 267.5,415.5C 267.5,414.5 267.5,413.5 267.5,412.5 Z"/></g>
<g><path style="opacity:1" fill="#d4979a" d="M 403.5,413.5 C 404.552,415.256 406.219,415.923 408.5,415.5C 406.735,416.461 404.735,416.795 402.5,416.5C 402.263,415.209 402.596,414.209 403.5,413.5 Z"/></g>
<g><path style="opacity:1" fill="#777676" d="M 242.5,425.5 C 237.167,425.5 231.833,425.5 226.5,425.5C 226.5,427.167 226.5,428.833 226.5,430.5C 225.539,428.735 225.205,426.735 225.5,424.5C 231.358,424.178 237.025,424.511 242.5,425.5 Z"/></g>
<g><path style="opacity:1" fill="#838283" d="M 371.5,425.5 C 376.975,424.511 382.642,424.178 388.5,424.5C 388.5,426.833 388.5,429.167 388.5,431.5C 386.5,431.5 384.5,431.5 382.5,431.5C 383.919,430.549 385.585,430.216 387.5,430.5C 387.5,428.833 387.5,427.167 387.5,425.5C 382.167,425.5 376.833,425.5 371.5,425.5 Z"/></g>
<g><path style="opacity:1" fill="#101010" d="M 179.5,425.5 C 181.017,425.511 182.184,426.177 183,427.5C 184.189,431.709 183.356,435.376 180.5,438.5C 182.473,441.246 183.973,444.246 185,447.5C 187.317,440.569 189.484,433.569 191.5,426.5C 193.743,425.526 196.076,425.192 198.5,425.5C 200.493,433.15 202.493,440.816 204.5,448.5C 202.5,448.5 200.5,448.5 198.5,448.5C 198.5,447.167 198.5,445.833 198.5,444.5C 196.167,444.5 193.833,444.5 191.5,444.5C 191.5,445.833 191.5,447.167 191.5,448.5C 187.167,448.5 182.833,448.5 178.5,448.5C 175.594,436.854 173.927,436.854 173.5,448.5C 171.833,448.5 170.167,448.5 168.5,448.5C 168.5,440.833 168.5,433.167 168.5,425.5C 172.167,425.5 175.833,425.5 179.5,425.5 Z"/></g>
<g><path style="opacity:1" fill="#0b0b0b" d="M 216.5,434.5 C 216.987,435.473 217.487,436.473 218,437.5C 218.499,433.514 218.666,429.514 218.5,425.5C 220.167,425.5 221.833,425.5 223.5,425.5C 223.5,433.167 223.5,440.833 223.5,448.5C 221.396,448.799 219.396,448.466 217.5,447.5C 215.667,443.833 213.833,440.167 212,436.5C 211.501,440.486 211.334,444.486 211.5,448.5C 209.833,448.5 208.167,448.5 206.5,448.5C 206.5,440.833 206.5,433.167 206.5,425.5C 208.604,425.201 210.604,425.534 212.5,426.5C 213.847,429.193 215.18,431.86 216.5,434.5 Z"/></g>
<g><path style="opacity:1" fill="#020202" d="M 242.5,425.5 C 242.5,427.167 242.5,428.833 242.5,430.5C 240.5,430.5 238.5,430.5 236.5,430.5C 236.5,436.5 236.5,442.5 236.5,448.5C 234.833,448.5 233.167,448.5 231.5,448.5C 231.5,442.5 231.5,436.5 231.5,430.5C 229.833,430.5 228.167,430.5 226.5,430.5C 226.5,428.833 226.5,427.167 226.5,425.5C 231.833,425.5 237.167,425.5 242.5,425.5 Z"/></g>
<g><path style="opacity:1" fill="#171717" d="M 248.5,424.5 C 250.5,424.5 252.5,424.5 254.5,424.5C 256.706,432.451 258.706,440.451 260.5,448.5C 258.5,448.5 256.5,448.5 254.5,448.5C 254.5,447.167 254.5,445.833 254.5,444.5C 252.167,444.5 249.833,444.5 247.5,444.5C 247.5,445.833 247.5,447.167 247.5,448.5C 245.396,448.799 243.396,448.466 241.5,447.5C 243.684,439.758 246.017,432.091 248.5,424.5 Z"/></g>
<g><path style="opacity:1" fill="#0a0a0a" d="M 267.5,440.5 C 268.356,443.513 270.189,444.18 273,442.5C 273.499,436.843 273.666,431.176 273.5,425.5C 275.167,425.5 276.833,425.5 278.5,425.5C 278.5,430.833 278.5,436.167 278.5,441.5C 276.91,448.962 272.576,451.129 265.5,448C 263.84,446.512 262.84,444.679 262.5,442.5C 262.5,436.833 262.5,431.167 262.5,425.5C 263.833,425.5 265.167,425.5 266.5,425.5C 266.179,430.695 266.513,435.695 267.5,440.5 Z"/></g>
<g><path style="opacity:1" fill="#060505" d="M 292.5,439.5 C 290.833,439.5 289.167,439.5 287.5,439.5C 287.5,442.5 287.5,445.5 287.5,448.5C 285.833,448.5 284.167,448.5 282.5,448.5C 282.5,440.833 282.5,433.167 282.5,425.5C 287.099,425.2 291.599,425.533 296,426.5C 297.457,429.366 297.79,432.366 297,435.5C 296.252,437.751 294.752,439.084 292.5,439.5 Z"/></g>
<g><path style="opacity:1" fill="#0e0e0e" d="M 317.5,447.5 C 315.735,448.461 313.735,448.795 311.5,448.5C 310.925,445.088 309.592,442.088 307.5,439.5C 307.44,438.957 307.107,438.624 306.5,438.5C 305.513,441.768 305.18,445.102 305.5,448.5C 303.833,448.5 302.167,448.5 300.5,448.5C 300.5,440.833 300.5,433.167 300.5,425.5C 305.179,425.334 309.845,425.501 314.5,426C 317.245,430.32 316.912,434.486 313.5,438.5C 315.219,441.323 316.553,444.323 317.5,447.5 Z"/></g>
<g><path style="opacity:1" fill="#101010" d="M 324.5,445.5 C 323.596,446.209 323.263,447.209 323.5,448.5C 321.585,448.784 319.919,448.451 318.5,447.5C 320.328,440.507 322.161,433.507 324,426.5C 326.381,425.565 328.881,425.232 331.5,425.5C 333.364,433.1 335.031,440.767 336.5,448.5C 334.833,448.5 333.167,448.5 331.5,448.5C 331.67,447.178 331.337,446.011 330.5,445C 328.288,444.211 326.288,444.378 324.5,445.5 Z"/></g>
<g><path style="opacity:1" fill="#090909" d="M 339.5,425.5 C 343.514,425.334 347.514,425.501 351.5,426C 355.309,430.227 355.309,434.56 351.5,439C 349.19,439.497 346.857,439.663 344.5,439.5C 344.5,442.5 344.5,445.5 344.5,448.5C 342.833,448.5 341.167,448.5 339.5,448.5C 339.5,440.833 339.5,433.167 339.5,425.5 Z"/></g>
<g><path style="opacity:1" fill="#151515" d="M 366.5,446.5 C 365.848,445.275 364.681,444.608 363,444.5C 361.615,444.514 360.449,444.848 359.5,445.5C 359.5,446.5 359.5,447.5 359.5,448.5C 357.5,448.5 355.5,448.5 353.5,448.5C 355.625,440.547 357.625,432.547 359.5,424.5C 361.527,424.338 363.527,424.505 365.5,425C 368.141,432.563 370.475,440.23 372.5,448C 371.5,448.167 370.5,448.333 369.5,448.5C 367.97,448.36 366.97,447.693 366.5,446.5 Z"/></g>
<g><path style="opacity:1" fill="#040404" d="M 371.5,425.5 C 376.833,425.5 382.167,425.5 387.5,425.5C 387.5,427.167 387.5,428.833 387.5,430.5C 385.585,430.216 383.919,430.549 382.5,431.5C 382.5,437.167 382.5,442.833 382.5,448.5C 380.833,448.5 379.167,448.5 377.5,448.5C 377.5,442.5 377.5,436.5 377.5,430.5C 375.5,430.5 373.5,430.5 371.5,430.5C 371.5,428.833 371.5,427.167 371.5,425.5 Z"/></g>
<g><path style="opacity:1" fill="#626262" d="M 179.5,425.5 C 175.833,425.5 172.167,425.5 168.5,425.5C 168.5,433.167 168.5,440.833 168.5,448.5C 167.508,440.684 167.174,432.684 167.5,424.5C 171.702,424.183 175.702,424.517 179.5,425.5 Z"/></g>
<g><path style="opacity:1" fill="#e8e7e7" d="M 173.5,429.5 C 177.676,428.831 179.009,430.331 177.5,434C 176.207,434.49 174.873,434.657 173.5,434.5C 173.5,432.833 173.5,431.167 173.5,429.5 Z"/></g>
<g><path style="opacity:1" fill="#808182" d="M 291.5,430.5 C 290.5,430.5 289.5,430.5 288.5,430.5C 288.5,431.833 288.5,433.167 288.5,434.5C 289.5,434.5 290.5,434.5 291.5,434.5C 290.432,435.434 289.099,435.768 287.5,435.5C 287.5,433.5 287.5,431.5 287.5,429.5C 289.099,429.232 290.432,429.566 291.5,430.5 Z"/></g>
<g><path style="opacity:1" fill="#e9e9e9" d="M 291.5,430.5 C 292.833,431.833 292.833,433.167 291.5,434.5C 290.5,434.5 289.5,434.5 288.5,434.5C 288.5,433.167 288.5,431.833 288.5,430.5C 289.5,430.5 290.5,430.5 291.5,430.5 Z"/></g>
<g><path style="opacity:1" fill="#e0e0e1" d="M 306.5,429.5 C 310.676,428.831 312.009,430.331 310.5,434C 309.207,434.49 307.873,434.657 306.5,434.5C 306.5,432.833 306.5,431.167 306.5,429.5 Z"/></g>
<g><path style="opacity:1" fill="#595959" d="M 267.5,440.5 C 266.513,435.695 266.179,430.695 266.5,425.5C 265.167,425.5 263.833,425.5 262.5,425.5C 262.5,431.167 262.5,436.833 262.5,442.5C 261.51,436.69 261.177,430.69 261.5,424.5C 263.5,424.5 265.5,424.5 267.5,424.5C 267.5,429.833 267.5,435.167 267.5,440.5 Z"/></g>
<g><path style="opacity:1" fill="#999999" d="M 273.5,425.5 C 275.265,424.539 277.265,424.205 279.5,424.5C 279.822,430.358 279.489,436.025 278.5,441.5C 278.5,436.167 278.5,430.833 278.5,425.5C 276.833,425.5 275.167,425.5 273.5,425.5 Z"/></g>
<g><path style="opacity:1" fill="#d1d1d1" d="M 344.5,429.5 C 348.35,429.701 349.35,431.534 347.5,435C 346.552,435.483 345.552,435.649 344.5,435.5C 344.5,433.5 344.5,431.5 344.5,429.5 Z"/></g>
<g><path style="opacity:1" fill="#dadada" d="M 194.5,431.5 C 196.04,433.838 196.706,436.505 196.5,439.5C 195.5,439.5 194.5,439.5 193.5,439.5C 193.401,436.763 193.735,434.096 194.5,431.5 Z"/></g>
<g><path style="opacity:1" fill="#babbba" d="M 223.5,425.5 C 221.833,425.5 220.167,425.5 218.5,425.5C 218.666,429.514 218.499,433.514 218,437.5C 217.487,436.473 216.987,435.473 216.5,434.5C 217.479,431.375 217.813,428.042 217.5,424.5C 219.735,424.205 221.735,424.539 223.5,425.5 Z"/></g>
<g><path style="opacity:1" fill="#ededed" d="M 250.5,433.5 C 252.28,434.99 252.946,436.99 252.5,439.5C 251.5,439.5 250.5,439.5 249.5,439.5C 249.833,437.5 250.167,435.5 250.5,433.5 Z"/></g>
<g><path style="opacity:1" fill="#e0e0e0" d="M 326.5,432.5 C 328.821,434.09 329.821,436.423 329.5,439.5C 328.5,439.5 327.5,439.5 326.5,439.5C 326.5,437.167 326.5,434.833 326.5,432.5 Z"/></g>
<g><path style="opacity:1" fill="#ededed" d="M 362.5,433.5 C 363.738,435.214 364.405,437.214 364.5,439.5C 363.5,439.5 362.5,439.5 361.5,439.5C 361.325,437.379 361.659,435.379 362.5,433.5 Z"/></g>
<g><path style="opacity:1" fill="#808080" d="M 371.5,430.5 C 373.5,430.5 375.5,430.5 377.5,430.5C 377.5,436.5 377.5,442.5 377.5,448.5C 376.511,443.025 376.178,437.358 376.5,431.5C 374.585,431.784 372.919,431.451 371.5,430.5 Z"/></g>
<g><path style="opacity:1" fill="#919191" d="M 242.5,430.5 C 241.081,431.451 239.415,431.784 237.5,431.5C 237.822,437.358 237.489,443.025 236.5,448.5C 236.5,442.5 236.5,436.5 236.5,430.5C 238.5,430.5 240.5,430.5 242.5,430.5 Z"/></g>
<g><path style="opacity:1" fill="#676767" d="M 307.5,439.5 C 306.833,442.5 306.167,445.5 305.5,448.5C 305.18,445.102 305.513,441.768 306.5,438.5C 307.107,438.624 307.44,438.957 307.5,439.5 Z"/></g>
<g><path style="opacity:1" fill="#828282" d="M 292.5,439.5 C 291.432,440.434 290.099,440.768 288.5,440.5C 288.806,443.385 288.473,446.052 287.5,448.5C 287.5,445.5 287.5,442.5 287.5,439.5C 289.167,439.5 290.833,439.5 292.5,439.5 Z"/></g>
<g><path style="opacity:1" fill="#a5a5a5" d="M 359.5,445.5 C 360.449,444.848 361.615,444.514 363,444.5C 364.681,444.608 365.848,445.275 366.5,446.5C 364.283,445.631 361.95,445.298 359.5,445.5 Z"/></g>
<g><path style="opacity:1" fill="#bbbbbb" d="M 324.5,445.5 C 324.5,446.833 324.5,448.167 324.5,449.5C 319.968,449.818 315.634,449.485 311.5,448.5C 313.735,448.795 315.735,448.461 317.5,447.5C 317.833,447.5 318.167,447.5 318.5,447.5C 319.919,448.451 321.585,448.784 323.5,448.5C 323.263,447.209 323.596,446.209 324.5,445.5 Z"/></g>
<g><path style="opacity:1" fill="#391e6b" d="M 110.5,467.5 C 114.917,473.997 118.584,480.997 121.5,488.5C 134.555,490.9 147.555,493.733 160.5,497C 165.642,499.094 170.642,501.26 175.5,503.5C 166.366,501.216 157.366,498.383 148.5,495C 138.39,493.053 128.39,491.886 118.5,491.5C 116.35,489.078 116.017,486.411 117.5,483.5C 114.805,480.48 112.639,477.147 111,473.5C 110.505,471.527 110.338,469.527 110.5,467.5 Z"/></g>
<g><path style="opacity:1" fill="#3d226e" d="M 424.5,485.5 C 425.363,489.162 424.03,491.328 420.5,492C 405.939,493.426 391.606,495.926 377.5,499.5C 383.874,496.779 390.541,494.612 397.5,493C 405.219,492.159 412.885,490.993 420.5,489.5C 422.288,488.563 423.621,487.23 424.5,485.5 Z"/></g>
<g><path style="opacity:1" fill="#3e2371" d="M 377.5,499.5 C 375.859,501.258 373.859,502.758 371.5,504C 370.207,504.49 368.873,504.657 367.5,504.5C 367.67,505.822 367.337,506.989 366.5,508C 361.979,507.878 357.979,509.211 354.5,512C 350.083,512.93 345.75,514.096 341.5,515.5C 352.937,509.23 364.937,503.896 377.5,499.5 Z"/></g>
<g><path style="opacity:1" fill="#503778" d="M 330.5,519.5 C 324.067,523.196 317.067,524.863 309.5,524.5C 316.437,523.088 323.437,521.421 330.5,519.5 Z"/></g>
<g><path style="opacity:1" fill="#422871" d="M 180.5,523.5 C 188.992,526.762 197.659,529.596 206.5,532C 209.598,533.556 212.598,535.056 215.5,536.5C 202.915,534.309 191.248,529.976 180.5,523.5 Z"/></g>
</svg>
